# xmcd CD database file
# Copyright (C) 1993-1998 Ti Kan
#
# Track frame offsets:
#	150
#	23495
#	43225
#	71640
#	133730
#	152062
#	174950
#	204400
#	237237
#
# Disc length: 3450 seconds
#
# Revision: 1
# Processed by: cddbd v1.4b41PL1 Copyright (c) Steve Scherf et al.
# Submitted via: CDValet v3.31 - Copyright (c) 1997 Greg Leichner
#
DISCID=730d7809
DTITLE=Rose Royce - Greatest Hits
DYEAR=1900
DGENRE=
TTITLE0=Is It Love You're After
TTITLE1=I Love The Feeling
TTITLE2=Wishing On A Star
TTITLE3=The Magic Touch
TTITLE4=Band Introduction
TTITLE5=Do Your Dance
TTITLE6=I Wanna Get Next To You
TTITLE7=Love Don't Live Here Anymore
TTITLE8=Car Wash
EXTD=
EXTT0=
EXTT1=
EXTT2=
EXTT3=
EXTT4=
EXTT5=
EXTT6=
EXTT7=
EXTT8=
PLAYORDER=
